<svg width="130" height="50" viewBox="0 0 178 44" fill="none" xmlns="http://www.w3.org/2000/svg">
  <path
    fill-rule="evenodd"
    clip-rule="evenodd"
    d="M69.3081 31.3052L66.8774 42.6062H61.2866L70.5235 1.64984H77.1463L85.8363 42.6062H80.1848L77.8148 31.3052H69.3081ZM77.1463 26.7475L75.2625 16.9626C74.7156 14.1673 74.1687 10.5231 73.7443 7.60521H73.5002C73.0758 10.5829 72.4661 14.3496 71.9212 16.9626L69.9766 26.7475H77.1463ZM107.176 0.557007V35.0111C107.176 37.2605 107.298 40.5421 107.418 42.6072H102.497L102.133 39.0228H101.95C100.978 41.088 98.7295 43.0944 95.7528 43.0944C90.2836 43.0944 86.9413 37.138 86.9413 27.9639C86.9413 17.5116 91.3764 12.5893 96.0567 12.5893C98.4257 12.5893 100.309 13.6841 101.343 15.9316H101.464V0.557007H107.176ZM101.463 24.3167C101.463 23.7708 101.463 23.1024 101.402 22.4926C101.098 19.8198 99.5793 17.5106 97.5141 17.5106C93.9277 17.5106 92.7134 22.4926 92.7134 27.9629C92.7134 34.0398 94.2934 38.2926 97.3318 38.2926C98.608 38.2926 100.308 37.6241 101.281 34.1005C101.402 33.6144 101.463 32.8841 101.463 32.2177V24.3167ZM120.783 43.0934C114.889 43.0934 110.634 38.0495 110.634 27.9031C110.634 17.146 115.677 12.5883 121.085 12.5883C126.919 12.5883 131.111 17.8144 131.111 27.7806C131.111 39.509 125.338 43.0934 120.842 43.0934H120.783ZM120.964 38.5975C124.488 38.5975 125.279 32.3382 125.279 27.8423C125.279 23.4052 124.489 17.0862 120.843 17.0862C117.075 17.0862 116.346 23.4052 116.346 27.8423C116.346 32.7636 117.197 38.5975 120.904 38.5975H120.964ZM134.555 0.557007H140.266V16.4167H140.388C141.907 13.7439 143.973 12.5883 146.586 12.5883C151.629 12.5883 154.79 18.3006 154.79 27.3552C154.79 37.928 150.475 43.0934 145.614 43.0934C142.697 43.0934 141.056 41.5123 139.779 38.8993H139.538L139.233 42.6062H134.312C134.433 40.6018 134.555 37.2595 134.555 35.0101V0.557007ZM140.266 32.1539C140.266 32.8244 140.327 33.4929 140.509 33.978C141.42 37.5644 143.183 38.2926 144.337 38.2926C147.74 38.2926 149.016 33.7967 149.016 27.7198C149.016 22.0683 147.68 17.5106 144.276 17.5106C142.392 17.5106 140.873 19.759 140.447 21.886C140.326 22.4936 140.265 23.2847 140.265 23.8913V32.1539H140.266ZM163.219 28.9949C163.279 36.5911 166.56 38.4739 170.024 38.4739C172.09 38.4739 173.852 37.9888 175.128 37.3801L175.979 41.5124C174.217 42.4239 171.543 42.911 168.93 42.911C161.517 42.911 157.628 37.3203 157.628 28.2049C157.628 18.5426 162.063 12.5873 168.201 12.5873C174.338 12.5873 177.195 18.4819 177.195 25.8967C177.195 27.3542 177.133 28.2667 177.073 29.0557L163.219 28.9949ZM171.786 24.9244C171.847 19.6983 170.024 16.9039 167.776 16.9039C164.798 16.9039 163.461 21.2185 163.279 24.9244H171.786Z"
    fill="#FAE7FB"
  />
  <path
    fill-rule="evenodd"
    clip-rule="evenodd"
    d="M29.0952 1.75916H46.1582V42.6061L29.0952 1.75916ZM17.0751 1.75916H0V42.6061L17.0751 1.75916ZM23.0862 16.8127L33.9578 42.6061H26.8336L23.5825 34.3912H15.6247L23.0862 16.8127Z"
    fill="#FAE7FB"
  />
  <path
    fill-rule="evenodd"
    clip-rule="evenodd"
    d="M176.71 12.5122C176.881 12.513 177.05 12.5477 177.208 12.6143C177.365 12.6809 177.508 12.778 177.628 12.9002C177.748 13.0223 177.843 13.167 177.907 13.3259C177.97 13.4848 178.002 13.6547 178 13.8259C178 14.5673 177.428 15.1456 176.703 15.1456C175.985 15.1456 175.401 14.5683 175.401 13.8259C175.4 13.654 175.433 13.4837 175.498 13.3246C175.563 13.1656 175.659 13.0209 175.78 12.8989C175.901 12.7768 176.045 12.6799 176.203 12.6135C176.362 12.5472 176.532 12.5128 176.703 12.5122H176.71ZM176.703 12.7158C176.126 12.7158 175.652 13.2131 175.652 13.8259C175.652 14.4508 176.126 14.941 176.71 14.941C177.293 14.9471 177.76 14.4508 177.76 13.8319C177.76 13.2131 177.293 12.7158 176.71 12.7158H176.703ZM176.458 14.5916H176.225V13.125C176.348 13.1078 176.465 13.0896 176.641 13.0896C176.862 13.0896 177.007 13.1372 177.095 13.201C177.184 13.2648 177.23 13.364 177.23 13.5048C177.23 13.6972 177.101 13.8147 176.943 13.8613V13.8725C177.072 13.8958 177.16 14.0132 177.189 14.229C177.224 14.4569 177.258 14.544 177.283 14.5916H177.038C177.002 14.544 176.968 14.4103 176.938 14.2178C176.903 14.0305 176.81 13.9606 176.622 13.9606H176.459V14.5916H176.458ZM176.458 13.7793H176.627C176.82 13.7793 176.985 13.7094 176.985 13.5281C176.985 13.3995 176.891 13.2708 176.627 13.2708C176.553 13.2708 176.499 13.2769 176.458 13.283V13.7793ZM48.4077 1.75916C48.5789 1.75994 48.7482 1.79463 48.906 1.86121C49.0637 1.92779 49.2066 2.02495 49.3266 2.14708C49.4466 2.26921 49.5412 2.4139 49.6049 2.57278C49.6687 2.73166 49.7003 2.9016 49.698 3.07278C49.698 3.81416 49.1258 4.39248 48.4016 4.39248C47.6835 4.39248 47.0991 3.81517 47.0991 3.07278C47.0982 2.90095 47.1312 2.73062 47.1962 2.57155C47.2612 2.41247 47.3569 2.26778 47.4779 2.14576C47.5989 2.02374 47.7427 1.92678 47.9012 1.86044C48.0598 1.7941 48.2298 1.75969 48.4016 1.75916H48.4077ZM48.4016 1.96273C47.8233 1.96273 47.3503 2.46002 47.3503 3.07278C47.3503 3.69769 47.8233 4.18789 48.4077 4.18789C48.9911 4.19397 49.459 3.69769 49.459 3.07886C49.459 2.46003 48.9911 1.96273 48.4077 1.96273H48.4016ZM48.1565 3.83847H47.9226V2.37191C48.0598 2.34913 48.1987 2.33762 48.3378 2.33747C48.5596 2.33747 48.7055 2.38305 48.7926 2.44787C48.8807 2.51168 48.9273 2.61194 48.9273 2.75171C48.9273 2.94415 48.7987 3.06164 48.6407 3.10823V3.11936C48.7693 3.14266 48.8574 3.26015 48.8868 3.47689C48.9212 3.70478 48.9567 3.79188 48.9799 3.83948H48.7348C48.6994 3.79188 48.6639 3.65819 48.6356 3.46575C48.6001 3.27838 48.507 3.2085 48.3196 3.2085H48.1565V3.83847ZM48.1565 3.02619H48.3257C48.5181 3.02619 48.6822 2.9563 48.6822 2.77501C48.6822 2.64638 48.589 2.51776 48.3257 2.51776C48.2497 2.51776 48.197 2.52383 48.1565 2.52991V3.02619Z"
    fill="#FAE7FB"
  />
</svg>
