<svg
  viewBox="0 0 178 44"
  fill="none"
  xmlns="http://www.w3.org/2000/svg"
>
  <path
    fill-rule="evenodd"
    clip-rule="evenodd"
    d="M69.3081 31.4298L66.8774 42.7308H61.2866L70.5235 1.77447H77.1463L85.8363 42.7308H80.1848L77.8148 31.4298H69.3081ZM77.1463 26.8721L75.2625 17.0873C74.7156 14.2919 74.1687 10.6478 73.7443 7.72984H73.5002C73.0758 10.7075 72.4661 14.4742 71.9212 17.0873L69.9766 26.8721H77.1463ZM107.176 0.681641V35.1357C107.176 37.3852 107.298 40.6667 107.418 42.7318H102.497L102.133 39.1475H101.95C100.978 41.2126 98.7295 43.219 95.7528 43.219C90.2836 43.219 86.9413 37.2626 86.9413 28.0885C86.9413 17.6362 91.3764 12.7139 96.0567 12.7139C98.4257 12.7139 100.309 13.8088 101.343 16.0562H101.464V0.681641H107.176ZM101.463 24.4413C101.463 23.8954 101.463 23.227 101.402 22.6173C101.098 19.9444 99.5793 17.6352 97.5141 17.6352C93.9277 17.6352 92.7134 22.6173 92.7134 28.0875C92.7134 34.1644 94.2934 38.4172 97.3318 38.4172C98.608 38.4172 100.308 37.7488 101.281 34.2252C101.402 33.739 101.463 33.0088 101.463 32.3423V24.4413ZM120.783 43.218C114.889 43.218 110.634 38.1742 110.634 28.0277C110.634 17.2706 115.677 12.7129 121.085 12.7129C126.919 12.7129 131.111 17.9391 131.111 27.9052C131.111 39.6336 125.338 43.218 120.842 43.218H120.783ZM120.964 38.7221C124.488 38.7221 125.279 32.4629 125.279 27.967C125.279 23.5298 124.489 17.2108 120.843 17.2108C117.075 17.2108 116.346 23.5298 116.346 27.967C116.346 32.8883 117.197 38.7221 120.904 38.7221H120.964ZM134.555 0.681641H140.266V16.5414H140.388C141.907 13.8685 143.973 12.7129 146.586 12.7129C151.629 12.7129 154.79 18.4252 154.79 27.4798C154.79 38.0526 150.475 43.218 145.614 43.218C142.697 43.218 141.056 41.637 139.779 39.0239H139.538L139.233 42.7308H134.312C134.433 40.7265 134.555 37.3842 134.555 35.1347V0.681641ZM140.266 32.2785C140.266 32.949 140.327 33.6175 140.509 34.1026C141.42 37.689 143.183 38.4172 144.337 38.4172C147.74 38.4172 149.016 33.9213 149.016 27.8444C149.016 22.1929 147.68 17.6352 144.276 17.6352C142.392 17.6352 140.873 19.8837 140.447 22.0106C140.326 22.6183 140.265 23.4093 140.265 24.016V32.2785H140.266ZM163.219 29.1196C163.279 36.7157 166.56 38.5985 170.024 38.5985C172.09 38.5985 173.852 38.1134 175.128 37.5047L175.979 41.637C174.217 42.5485 171.543 43.0357 168.93 43.0357C161.517 43.0357 157.628 37.4449 157.628 28.3296C157.628 18.6673 162.063 12.7119 168.201 12.7119C174.338 12.7119 177.195 18.6065 177.195 26.0214C177.195 27.4788 177.133 28.3913 177.073 29.1803L163.219 29.1196ZM171.786 25.049C171.847 19.8229 170.024 17.0285 167.776 17.0285C164.798 17.0285 163.461 21.3431 163.279 25.049H171.786Z"
    fill="#FAE7FB"
  />
  <path
    fill-rule="evenodd"
    clip-rule="evenodd"
    d="M29.0952 1.88379H46.1582V42.7308L29.0952 1.88379ZM17.0751 1.88379H0V42.7308L17.0751 1.88379ZM23.0862 16.9373L33.9578 42.7308H26.8336L23.5825 34.5158H15.6247L23.0862 16.9373Z"
    fill="#CC2131"
  />
  <path
    fill-rule="evenodd"
    clip-rule="evenodd"
    d="M176.71 12.6369C176.881 12.6377 177.05 12.6724 177.208 12.7389C177.365 12.8055 177.508 12.9027 177.628 13.0248C177.748 13.1469 177.843 13.2916 177.907 13.4505C177.97 13.6094 178.002 13.7793 178 13.9505C178 14.6919 177.428 15.2702 176.703 15.2702C175.985 15.2702 175.401 14.6929 175.401 13.9505C175.4 13.7787 175.433 13.6083 175.498 13.4493C175.563 13.2902 175.659 13.1455 175.78 13.0235C175.901 12.9015 176.045 12.8045 176.203 12.7382C176.362 12.6718 176.532 12.6374 176.703 12.6369H176.71ZM176.703 12.8405C176.126 12.8405 175.652 13.3378 175.652 13.9505C175.652 14.5754 176.126 15.0656 176.71 15.0656C177.293 15.0717 177.76 14.5754 177.76 13.9566C177.76 13.3377 177.293 12.8405 176.71 12.8405H176.703ZM176.458 14.7162H176.225V13.2496C176.348 13.2324 176.465 13.2142 176.641 13.2142C176.862 13.2142 177.007 13.2618 177.095 13.3256C177.184 13.3894 177.23 13.4887 177.23 13.6294C177.23 13.8219 177.101 13.9394 176.943 13.986V13.9971C177.072 14.0204 177.16 14.1379 177.189 14.3536C177.224 14.5815 177.258 14.6686 177.283 14.7162H177.038C177.002 14.6686 176.968 14.5349 176.938 14.3425C176.903 14.1551 176.81 14.0852 176.622 14.0852H176.459V14.7162H176.458ZM176.458 13.9039H176.627C176.82 13.9039 176.985 13.834 176.985 13.6527C176.985 13.5241 176.891 13.3955 176.627 13.3955C176.553 13.3955 176.499 13.4016 176.458 13.4076V13.9039ZM48.4077 1.88379C48.5789 1.88458 48.7482 1.91926 48.906 1.98584C49.0637 2.05243 49.2066 2.14959 49.3266 2.27172C49.4466 2.39385 49.5412 2.53853 49.6049 2.69742C49.6687 2.8563 49.7003 3.02623 49.698 3.19741C49.698 3.93879 49.1258 4.51712 48.4016 4.51712C47.6835 4.51712 47.0991 3.93981 47.0991 3.19741C47.0982 3.02558 47.1312 2.85525 47.1962 2.69618C47.2612 2.53711 47.3569 2.39242 47.4779 2.2704C47.5989 2.14837 47.7427 2.05142 47.9012 1.98508C48.0598 1.91874 48.2298 1.88432 48.4016 1.88379H48.4077ZM48.4016 2.08736C47.8233 2.08736 47.3503 2.58466 47.3503 3.19741C47.3503 3.82232 47.8233 4.31252 48.4077 4.31252C48.9911 4.3186 49.459 3.82232 49.459 3.20349C49.459 2.58466 48.9911 2.08736 48.4077 2.08736H48.4016ZM48.1565 3.96311H47.9226V2.49654C48.0598 2.47376 48.1987 2.46225 48.3378 2.46211C48.5596 2.46211 48.7055 2.50769 48.7926 2.57251C48.8807 2.63631 48.9273 2.73658 48.9273 2.87635C48.9273 3.06878 48.7987 3.18627 48.6407 3.23286V3.244C48.7693 3.26729 48.8574 3.38478 48.8868 3.60153C48.9212 3.82941 48.9567 3.91652 48.9799 3.96412H48.7348C48.6994 3.91652 48.6639 3.78282 48.6356 3.59039C48.6001 3.40301 48.507 3.33313 48.3196 3.33313H48.1565V3.96311ZM48.1565 3.15082H48.3257C48.5181 3.15082 48.6822 3.08094 48.6822 2.89964C48.6822 2.77102 48.589 2.64239 48.3257 2.64239C48.2497 2.64239 48.197 2.64847 48.1565 2.65455V3.15082Z"
    fill="#FAE7FB"
  />
</svg>
