<svg
  viewBox="0 0 177 43"
  fill="none"
  xmlns="http://www.w3.org/2000/svg"
>
  <path
    d="M69.6865 15.7847L75.2871 15.7847L75.2871 33.3841L69.6865 33.3841L69.6865 15.7847Z"
    fill="#FAE7FB"
  />
  <path
    d="M76.4663 15.7846L81.8588 15.7846L81.8588 18.1947L81.9629 18.1947C83.2633 16.3048 84.9452 15.2817 87.3901 15.2817C91.2394 15.2817 93.5109 18.0387 93.5109 21.9574L93.5109 33.4013L87.9103 33.4013L87.9103 23.0844C87.9103 21.2291 86.9739 19.9634 85.1533 19.9634C83.298 19.9634 82.0669 21.5066 82.0669 23.674L82.0669 33.4013L76.4663 33.4013L76.4663 15.7846Z"
    fill="#FAE7FB"
  />
  <path
    d="M72.4957 14.4493C74.3535 14.4493 75.8595 12.9433 75.8595 11.0855C75.8595 9.22772 74.3535 7.72168 72.4957 7.72168C70.6379 7.72168 69.1318 9.22772 69.1318 11.0855C69.1318 12.9433 70.6379 14.4493 72.4957 14.4493Z"
    fill="#FAE7FB"
  />
  <path
    d="M132.906 15.5242C132.75 15.5068 132.559 15.5068 132.351 15.5068C130.218 15.5068 128.779 16.4432 127.531 18.5239L127.427 18.5239L127.427 15.7843L122.069 15.7843L122.069 33.3837L127.669 33.3837L127.669 25.477C127.669 21.8184 129.698 20.1191 132.906 20.4139L132.906 15.5242Z"
    fill="#FAE7FB"
  />
  <path
    d="M160.406 22.2868C158.17 21.8707 156.176 21.6973 156.176 20.4662C156.176 19.3738 157.233 18.8536 158.62 18.8536C160.164 18.8536 161.239 19.3391 161.447 20.917L166.596 20.917C166.319 17.4492 163.649 15.2817 158.655 15.2817C154.494 15.2817 151.06 17.2064 151.06 20.917C151.06 25.0438 154.32 25.8587 157.389 26.3789C159.73 26.7951 161.863 26.9685 161.863 28.5463C161.863 29.6734 160.805 30.2976 159.106 30.2976C157.424 30.2976 156.297 29.5867 155.95 28.1302L150.61 28.1302C151.008 31.7541 154.182 33.9389 159.141 33.9389C163.753 33.9389 167.151 31.9448 167.151 28.0955C167.134 23.5873 163.493 22.807 160.406 22.2868Z"
    fill="#FAE7FB"
  />
  <path
    d="M141.905 29.8812C139.599 29.8812 138.298 28.4074 137.952 26.0319L150.592 26.0319C150.627 22.46 149.604 19.3909 147.506 17.4663C145.997 16.0964 144.003 15.2642 141.489 15.2642C136.131 15.2642 132.455 19.2869 132.455 24.5407C132.455 29.8639 136.027 33.8866 141.836 33.8866C144.072 33.8866 145.858 33.2971 147.332 32.274C148.875 31.2163 149.916 29.6905 150.28 28.1126L144.818 28.1126C144.35 29.2223 143.396 29.8812 141.905 29.8812ZM141.593 19.2522C143.414 19.2522 144.714 20.5873 144.922 22.6854L137.986 22.6854C138.368 20.6047 139.478 19.2522 141.593 19.2522Z"
    fill="#FAE7FB"
  />
  <path
    d="M177 29.24C176.74 29.2573 176.393 29.2573 176.064 29.2573C174.867 29.2573 174.104 28.9106 174.104 27.5407L174.104 19.2872L177 19.2872L177 15.7847L174.104 15.7847L174.104 10.2187L168.642 10.2187L168.642 15.7847L166.926 15.7847L166.926 19.2872L168.642 19.2872L168.642 28.7372C168.642 32.5171 170.983 33.5922 174.243 33.5922C175.491 33.5922 176.428 33.5055 177 33.3841L177 29.24Z"
    fill="#FAE7FB"
  />
  <path
    d="M103.516 29.24C103.29 29.24 103.03 29.2573 102.788 29.2573C101.591 29.2573 100.828 28.9106 100.828 27.5407L100.828 19.2872L103.516 19.2872L103.516 15.7847L100.828 15.7847L100.828 10.2187L95.3663 10.2187L95.3663 15.7847L93.5457 15.7847L93.5457 19.2872L95.3663 19.2872L95.3663 28.7372C95.3663 32.5171 97.7071 33.5922 100.967 33.5922C102.077 33.5922 102.944 33.5228 103.516 33.4188L103.516 29.24Z"
    fill="#FAE7FB"
  />
  <path
    d="M103.238 24.5583C103.238 19.3045 106.914 15.2817 112.272 15.2817C114.786 15.2817 116.78 16.114 118.289 17.4838C120.387 19.4085 121.41 22.4602 121.375 26.0495L108.735 26.0495C109.082 28.425 110.382 29.8988 112.688 29.8988C114.162 29.8988 115.133 29.2399 115.601 28.1475L121.063 28.1475C120.682 29.7254 119.659 31.2339 118.115 32.309C116.642 33.332 114.856 33.9215 112.619 33.9215C106.81 33.9042 103.238 29.8815 103.238 24.5583ZM115.723 22.703C115.515 20.6049 114.214 19.2698 112.393 19.2698C110.261 19.2698 109.168 20.6049 108.787 22.703L115.723 22.703Z"
    fill="#FAE7FB"
  />
  <path
    d="M49.9893 8.81396L59.7166 8.81396C62.699 8.81396 64.9011 9.64625 66.427 11.0854C68.0048 12.5593 68.9065 14.6573 68.9065 17.1368C68.9065 21.8531 65.6467 25.1823 60.5836 25.1823L55.6592 25.1823L55.6592 33.4011L49.9893 33.4011L49.9893 8.81396ZM59.9594 20.362C62.1615 20.362 63.3926 19.0615 63.3926 17.1022C63.3926 15.1428 62.1268 13.9464 59.9594 13.9464L55.6592 13.9464L55.6592 20.3793L59.9594 20.3793L59.9594 20.362Z"
    fill="#FAE7FB"
  />
  <path
    d="M21.0673 42.8162C32.7024 42.8162 42.1346 33.3841 42.1346 21.7489C42.1346 10.1138 32.7024 0.68164 21.0673 0.68164C9.43215 0.68164 -2.51019e-07 10.1138 -5.60666e-07 21.7489C-8.70313e-07 33.3841 9.43215 42.8162 21.0673 42.8162Z"
    fill="#FAE7FB"
  />
  <path
    d="M21.0673 0.68164C9.41526 0.68164 -2.51031e-07 10.1142 -5.60666e-07 21.7489C-7.98315e-07 30.6787 5.54859 38.308 13.386 41.3771C13.1952 39.7125 13.0392 37.1463 13.4553 35.3256C13.8368 33.6784 15.9175 24.8527 15.9175 24.8527C15.9175 24.8527 15.2933 23.5869 15.2933 21.7316C15.2933 18.8012 16.9926 16.6165 19.1079 16.6165C20.9112 16.6165 21.7782 17.969 21.7782 19.5815C21.7782 21.3848 20.6338 24.0897 20.0269 26.604C19.5241 28.702 21.0846 30.4186 23.148 30.4186C26.8933 30.4186 29.7716 26.4652 29.7716 20.7779C29.7716 15.7322 26.1477 12.2123 20.9633 12.2123C14.9638 12.2123 11.444 16.7032 11.444 21.3501C11.444 23.1534 12.1375 25.0954 13.0045 26.1531C13.1779 26.3612 13.1952 26.5519 13.1432 26.76C12.9872 27.4189 12.623 28.8581 12.5537 29.1528C12.467 29.5343 12.2416 29.621 11.8428 29.4303C9.24187 28.1818 7.61197 24.3325 7.61197 21.2461C7.61197 14.6051 12.4323 8.50168 21.5355 8.50168C28.8353 8.50168 34.5226 13.7035 34.5226 20.6739C34.5226 27.9391 29.945 33.7824 23.5988 33.7824C21.4661 33.7824 19.4547 32.6727 18.7785 31.3549C18.7785 31.3549 17.7208 35.3777 17.4607 36.366C16.9926 38.204 15.7094 40.4928 14.8425 41.8972C16.8192 42.5041 18.8999 42.8336 21.0846 42.8336C32.7193 42.8336 42.1519 33.401 42.1519 21.7663C42.1346 10.1142 32.702 0.68164 21.0673 0.68164Z"
    fill="#E60019"
  />
</svg>
