<svg
  viewBox="0 0 192 50"
  fill="none"
  xmlns="http://www.w3.org/2000/svg"
>
  <g clip-path="url(#clip0_297_976)">
    <path
      fill-rule="evenodd"
      clip-rule="evenodd"
      d="M66.6255 38.2511L68.8344 33.0349C71.2204 34.8479 74.3993 35.7905 77.5358 35.7905C79.8509 35.7905 81.3165 34.8839 81.3165 33.5097C81.2811 29.6677 67.4468 32.6751 67.3406 23.0413C67.3052 18.1488 71.5815 14.3787 77.642 14.3787C81.2457 14.3787 84.8423 15.2853 87.4124 17.3502L85.345 22.6743C82.9944 21.149 80.0704 20.0626 77.288 20.0626C75.3976 20.0626 74.1515 20.9692 74.1515 22.1275C74.1869 25.8976 88.1274 23.8327 88.269 33.0349C88.269 38.0352 84.0989 41.5535 78.1092 41.5535C73.7196 41.5463 69.6911 40.4959 66.6255 38.2511ZM151.451 31.1498C150.346 33.1068 148.279 34.445 145.886 34.445C142.353 34.445 139.507 31.5455 139.507 27.9625C139.507 24.3795 142.36 21.48 145.886 21.48C148.272 21.48 150.346 22.8182 151.451 24.7752L157.547 21.3361C155.267 17.2063 150.877 14.3787 145.886 14.3787C138.502 14.3787 132.512 20.4655 132.512 27.9697C132.512 35.4739 138.502 41.5607 145.886 41.5607C150.913 41.5607 155.267 38.7691 157.547 34.6033L151.451 31.1498ZM91.3347 3.10449H98.9669V41.0427H91.3347V3.10449ZM160.542 3.10449V41.0427H168.174V29.6605L177.229 41.0427H187L175.48 27.5236L186.143 14.9112H176.797L168.167 25.3796V3.10449H160.542Z"
      fill="#FAE7FB"
    />
    <path
      d="M120.786 31.5035C119.591 33.4721 117.125 34.9351 114.344 34.9351C110.522 34.9351 107.443 31.8482 107.443 28.0337C107.443 24.2191 110.53 21.1323 114.344 21.1323C117.125 21.1323 119.591 22.6719 120.786 24.6787V31.5035ZM120.786 14.1466V17.425C119.438 15.15 116.083 13.5645 112.567 13.5645C105.313 13.5645 99.6069 19.968 99.6069 27.9954C99.6069 36.0227 105.313 42.5029 112.567 42.5029C116.075 42.5029 119.43 40.925 120.786 38.6424V41.9207H129.043V14.1466H120.786Z"
      fill="#FAE7FB"
    />
    <path
      fill-rule="evenodd"
      clip-rule="evenodd"
      d="M9.45083 29.6034C9.45083 32.2509 7.34823 34.3875 4.74299 34.3875C2.13775 34.3875 0.0351562 32.2437 0.0351562 29.6034C0.0351562 26.9632 2.13775 24.8193 4.74299 24.8193H9.45083V29.6034ZM11.8012 29.6034C11.8012 26.956 13.9038 24.8193 16.509 24.8193C19.1143 24.8193 21.2169 26.956 21.2169 29.6034V41.5601C21.2169 44.2075 19.1143 46.3441 16.509 46.3441C13.9038 46.3441 11.8012 44.2075 11.8012 41.5601V29.6034Z"
      fill="#E01E5A"
    />
    <path
      fill-rule="evenodd"
      clip-rule="evenodd"
      d="M16.5093 10.4022C13.904 10.4022 11.8014 8.26551 11.8014 5.61807C11.8014 2.97064 13.904 0.833984 16.5093 0.833984C19.1145 0.833984 21.2171 2.97064 21.2171 5.61807V10.4022H16.5093ZM16.5093 12.8266C19.1145 12.8266 21.2171 14.9632 21.2171 17.6107C21.2171 20.2581 19.1145 22.3948 16.5093 22.3948H4.70783C2.1026 22.3948 0 20.2509 0 17.6107C0 14.9704 2.1026 12.8266 4.70783 12.8266H16.5093Z"
      fill="#36C5F0"
    />
    <path
      fill-rule="evenodd"
      clip-rule="evenodd"
      d="M35.3691 17.6107C35.3691 14.9632 37.4717 12.8266 40.0769 12.8266C42.6821 12.8266 44.7847 14.9632 44.7847 17.6107C44.7847 20.2581 42.6821 22.3948 40.0769 22.3948H35.3691V17.6107ZM33.0187 17.6107C33.0187 20.2581 30.9161 22.3948 28.3109 22.3948C25.7056 22.3948 23.603 20.2581 23.603 17.6107V5.61807C23.603 2.97064 25.7056 0.833984 28.3109 0.833984C30.9161 0.833984 33.0187 2.97064 33.0187 5.61807V17.6107Z"
      fill="#2EB67D"
    />
    <path
      fill-rule="evenodd"
      clip-rule="evenodd"
      d="M28.3109 36.776C30.9161 36.776 33.0187 38.9126 33.0187 41.5601C33.0187 44.2075 30.9161 46.3441 28.3109 46.3441C25.7056 46.3441 23.603 44.2075 23.603 41.5601V36.776H28.3109ZM28.3109 34.3875C25.7056 34.3875 23.603 32.2509 23.603 29.6034C23.603 26.956 25.7056 24.8193 28.3109 24.8193H40.1123C42.7175 24.8193 44.8201 26.956 44.8201 29.6034C44.8201 32.2509 42.7175 34.3875 40.1123 34.3875H28.3109Z"
      fill="#ECB22E"
    />
  </g>
  <defs>
    <clipPath id="clip0_297_976">
      <rect width="191.493" height="48.4554" fill="white" transform="translate(0 0.833984)" />
    </clipPath>
  </defs>
</svg>
