<svg
  viewBox="0 0 177 35"
  fill="none"
  xmlns="http://www.w3.org/2000/svg"
>
  <path
    d="M176.647 8.20645V26.0181H170.723V22.7774C170.223 23.9979 169.463 24.9276 168.439 25.5621C167.418 26.1944 166.153 26.5138 164.655 26.5138C163.315 26.5138 162.146 26.1811 161.147 25.5136C160.15 24.8461 159.379 23.9296 158.836 22.7664C158.298 21.6032 158.026 20.2902 158.026 18.8185C158.008 17.3028 158.296 15.9414 158.885 14.7363C159.473 13.5312 160.306 12.5927 161.375 11.9164C162.447 11.2423 163.671 10.903 165.041 10.903C167.864 10.903 169.757 12.1565 170.723 14.6636V8.20645H176.647ZM169.838 20.9863C170.444 20.3849 170.743 19.6028 170.743 18.6489C170.743 17.728 170.451 16.9746 169.862 16.3974C169.276 15.8224 168.47 15.5316 167.459 15.5316C166.46 15.5316 165.663 15.8246 165.065 16.4128C164.468 16.9988 164.171 17.7589 164.171 18.6996C164.171 19.6403 164.468 20.4069 165.065 20.9996C165.663 21.5944 166.451 21.8896 167.435 21.8896C168.433 21.8874 169.234 21.5856 169.838 20.9863ZM156.965 11.8172V17.1618C156.35 16.7477 155.555 16.5428 154.571 16.5428C153.282 16.5428 152.289 16.9415 151.597 17.7413C150.903 18.541 150.558 19.7835 150.558 21.4666V26.0181H144.635V11.5463H150.437V16.1462C150.758 14.4653 151.281 13.225 151.999 12.4231C152.713 11.6234 153.638 11.2246 154.764 11.2246C155.619 11.2246 156.35 11.4229 156.965 11.8172ZM128.278 25.474C126.883 24.7822 125.82 23.8349 125.087 22.6298C124.355 21.4248 123.986 20.0809 123.986 18.596C123.986 17.1112 124.351 15.7871 125.087 14.6239C125.822 13.4607 126.879 12.5487 128.269 11.8877C129.653 11.2268 131.307 10.8986 133.224 10.8986C135.142 10.8986 136.796 11.2268 138.181 11.8877C139.567 12.5487 140.624 13.4541 141.349 14.6107C142.076 15.7651 142.438 17.0914 142.438 18.5938C142.438 20.0765 142.076 21.4203 141.349 22.6254C140.624 23.8305 139.563 24.7778 138.168 25.4718C136.771 26.1635 135.124 26.5094 133.222 26.5094C131.318 26.5094 129.67 26.1679 128.278 25.474ZM135.625 21.0855C136.213 20.484 136.51 19.6887 136.51 18.6996C136.51 17.7104 136.216 16.9217 135.625 16.3379C135.038 15.7519 134.237 15.4589 133.222 15.4589C132.187 15.4589 131.379 15.7519 130.791 16.3379C130.202 16.9239 129.91 17.7104 129.91 18.6996C129.91 19.6887 130.202 20.484 130.791 21.0855C131.377 21.6847 132.187 21.9887 133.222 21.9887C134.237 21.9865 135.038 21.6847 135.625 21.0855ZM111.098 25.474C109.712 24.7822 108.666 23.8415 107.968 22.6541C107.269 21.4666 106.918 20.1294 106.918 18.6467C106.918 17.1618 107.28 15.8334 108.005 14.6636C108.732 13.4938 109.795 12.5729 111.199 11.9054C112.6 11.2378 114.276 10.9052 116.226 10.9052C118.644 10.9052 120.652 11.4251 122.247 12.4649V16.9922C121.684 16.5957 121.028 16.274 120.279 16.0273C119.53 15.7805 118.728 15.655 117.871 15.655C116.371 15.655 115.201 15.9347 114.355 16.4965C113.509 17.0583 113.083 17.7897 113.083 18.6996C113.083 19.5896 113.494 20.3166 114.318 20.8894C115.139 21.46 116.329 21.7464 117.896 21.7464C118.699 21.7464 119.494 21.6252 120.279 21.3895C121.058 21.1472 121.733 20.8542 122.295 20.5083V24.8879C120.525 25.9763 118.469 26.5204 116.13 26.5204C114.162 26.5138 112.484 26.1679 111.098 25.474ZM93.9789 25.9939C92.672 25.648 91.4948 25.1457 90.4471 24.4848V20.3783C91.24 21.004 92.2986 21.5195 93.6297 21.9248C94.9585 22.328 96.2434 22.5307 97.4865 22.5307C98.0686 22.5307 98.5057 22.4514 98.8022 22.2972C99.1009 22.1407 99.2503 21.9535 99.2503 21.7376C99.2503 21.4908 99.169 21.286 99.0065 21.1207C98.8439 20.9533 98.5298 20.8167 98.0642 20.6999L95.1628 20.0324C93.5023 19.6359 92.3228 19.0873 91.6222 18.3845C90.9215 17.684 90.5723 16.7653 90.5723 15.6285C90.5723 14.6702 90.8754 13.8396 91.4904 13.1281C92.1032 12.4187 92.9729 11.8701 94.1019 11.4846C95.233 11.0969 96.5509 10.903 98.0686 10.903C99.4216 10.903 100.663 11.0506 101.791 11.348C102.92 11.6454 103.854 12.0221 104.596 12.4848V16.371C103.836 15.9061 102.964 15.5426 101.972 15.2672C100.979 14.994 99.9619 14.8619 98.9098 14.8619C97.3943 14.8619 96.6387 15.1262 96.6387 15.6528C96.6387 15.8995 96.7551 16.0846 96.9902 16.2079C97.2252 16.3313 97.6557 16.4591 98.2816 16.5935L100.7 17.0385C102.279 17.3161 103.456 17.8073 104.229 18.5079C105.005 19.2085 105.391 20.2439 105.391 21.6142C105.391 23.1167 104.752 24.3085 103.47 25.192C102.189 26.0754 100.37 26.516 98.0159 26.516C96.63 26.5138 95.2836 26.3398 93.9789 25.9939ZM81.8965 14.9566C83.7063 15.7541 85.951 15.7893 87.8026 14.9566V26.0952H81.8965V14.9566ZM84.8529 13.0862C86.4826 13.0862 87.8048 11.8701 87.8048 10.372C87.8048 8.87397 86.4826 7.65789 84.8529 7.65789C83.2209 7.65789 81.8987 8.87397 81.8987 10.372C81.8987 11.8701 83.2209 13.0862 84.8529 13.0862ZM59.9588 8.69993H69.388C71.6613 8.69993 73.5809 9.06344 75.1557 9.78824C76.7284 10.513 77.9056 11.5242 78.6876 12.8174C79.4673 14.1106 79.8604 15.5933 79.8604 17.261C79.8604 18.8934 79.4519 20.3739 78.637 21.7001C77.8222 23.0286 76.5834 24.0772 74.9141 24.8527C73.2471 25.626 71.1803 26.0159 68.7115 26.0159H59.9588V8.69993ZM68.6149 21.6142C70.1436 21.6142 71.323 21.2221 72.1445 20.4422C72.9659 19.6557 73.3767 18.5894 73.3767 17.2368C73.3767 15.981 73.0099 14.9808 72.2785 14.2318C71.5471 13.4828 70.4379 13.1038 68.9553 13.1038H66.0055V21.6142H68.6149ZM44.6741 28.36C40.8699 31.2107 37.1822 32.9379 33.5537 34.0681C32.6554 32.8365 31.8625 31.5213 31.175 30.1422C32.4784 29.6461 33.7347 29.0334 34.9287 28.3115C34.619 28.078 34.3115 27.8334 34.0106 27.5845C26.8701 30.9684 19.0201 30.9684 11.794 27.5845C11.4939 27.8353 11.1871 28.0777 10.8737 28.3115C12.0597 29.0253 13.3139 29.6399 14.6229 30.1378C13.9355 31.5213 13.136 32.8321 12.242 34.0659C8.61797 32.9335 4.93241 31.2063 1.13044 28.36C0.352909 20.017 1.90796 11.5529 7.64057 2.87066C10.4849 1.53561 13.5269 0.564068 16.7095 0.0133057C17.1027 0.718282 17.5683 1.67 17.8824 2.42565C21.199 1.91674 24.5463 1.91674 27.9243 2.42565C28.2384 1.67 28.6953 0.718282 29.084 0.0133057C32.2622 0.564068 35.302 1.53121 38.1442 2.86405C43.1146 10.3015 45.5856 18.6886 44.6741 28.36ZM19.5538 18.7304C19.5934 16.2564 17.8143 14.2274 15.6069 14.2274C13.3995 14.2274 11.6578 16.2586 11.6578 18.7304C11.6578 21.2 13.4369 23.229 15.6069 23.229C17.8143 23.229 19.5582 21.2 19.5538 18.7304ZM34.1445 18.7304C34.1841 16.2564 32.405 14.2274 30.1976 14.2274C27.9902 14.2274 26.2485 16.2586 26.2485 18.7304C26.2485 21.2 28.0276 23.229 30.1976 23.229C32.405 23.229 34.1445 21.2 34.1445 18.7304Z"
    fill="#FAE7FB"
  />
</svg>
