<svg width="177" height="42" viewBox="0 0 177 42" fill="none" xmlns="http://www.w3.org/2000/svg">
  <path
    fill-rule="evenodd"
    clip-rule="evenodd"
    d="M45.5133 27.3128H49.6072C51.2045 27.3128 51.8119 27.8747 51.8119 29.251C51.8119 30.5763 51.2042 31.1376 49.6072 31.1376H45.5133V27.3128ZM39.1712 41.2336H45.5137V35.5729H52.3072C56.805 35.5729 58.4244 32.8716 58.4244 29.3791C58.4244 25.325 56.7592 23.0309 52.2614 23.0309H39.1712V41.2336ZM60.5161 23.0309H77.5862V27.4659H66.8586V29.9135H76.8227V34.3504H66.8586V36.7976H77.5862V41.2336H60.5161V23.0309ZM86.5834 27.3128H90.677C92.274 27.3128 92.8817 27.8747 92.8817 29.251C92.8817 30.5763 92.274 31.1376 90.677 31.1376H86.5834V27.3128ZM80.2409 41.2336H86.5834V35.5729H93.3757C97.8748 35.5729 99.4945 32.8716 99.4945 29.3791C99.4945 25.325 97.8293 23.0309 93.3305 23.0309H80.2409V41.2336ZM105.634 33.5087C102.53 32.9725 101.249 30.9331 101.249 28.3843C101.249 23.6671 105.32 22.3935 110.537 22.3935C117.688 22.3935 120.635 24.5087 120.861 28.3589H113.483C113.483 27.6194 113.101 27.1596 112.517 26.9049C111.954 26.6252 111.235 26.5234 110.537 26.5234C108.648 26.5234 107.996 27.0581 107.996 27.8236C107.996 28.3326 108.198 28.6653 108.828 28.7668L116.407 30.041C119.601 30.5763 121.581 32.2589 121.581 35.343C121.581 39.7805 118.387 41.871 111.257 41.871C106.376 41.871 101.045 41.1064 101.023 35.7524H108.67C108.692 36.3635 108.895 36.7713 109.346 37.052C109.817 37.3073 110.514 37.4351 111.504 37.4351C113.482 37.4351 114.023 36.8227 114.023 35.9557C114.023 35.4204 113.73 34.8854 112.877 34.7331L105.634 33.5087ZM123.649 23.0309H129.991V41.2336H123.649V23.0309ZM153.497 34.1462C153.092 36.5427 152.371 38.4803 150.796 39.8056C149.245 41.1315 146.816 41.871 142.948 41.871C139.102 41.871 131.972 41.5643 131.972 32.1327C131.972 22.6992 139.102 22.3932 142.948 22.3932C146.77 22.3932 152.664 22.9536 153.497 30.1694H146.344C146.164 28.8679 145.398 26.9817 142.948 26.9817C140.36 26.9817 138.718 28.4347 138.718 32.1324C138.718 35.8291 140.316 37.2813 142.632 37.2813C144.634 37.2813 145.827 36.3381 146.344 34.1458H153.497V34.1462ZM161.795 32.133C161.795 28.4351 163.438 26.9823 166.025 26.9823C168.611 26.9823 170.253 28.4354 170.253 32.133C170.253 35.8298 168.611 37.2819 166.025 37.2819C163.438 37.2816 161.795 35.8294 161.795 32.133ZM155.047 32.133C155.047 41.5643 162.177 41.8713 166.024 41.8713C169.87 41.8713 177 41.5647 177 32.133C177 22.6995 169.87 22.3935 166.024 22.3935C162.177 22.3935 155.047 22.6992 155.047 32.133ZM29.5874 23.2113C29.9969 14.4782 22.6099 4.64345 12.5391 3.42781L12.5563 3.30847C22.4845 3.30847 30.0956 12.679 30.0956 20.0715C30.086 21.6104 29.9668 22.5639 29.7542 23.2561L29.5874 23.2113ZM28.9858 24.3214C28.3253 25.1443 27.4945 25.9728 26.5212 26.7593C24.7307 16.2602 17.1633 7.07943 11.8131 4.39976L11.6985 4.4812C17.0791 8.98324 23.4965 17.727 25.9922 27.1712C24.7192 28.1245 23.3441 28.9274 21.8934 29.5642C16.8161 23.6611 12.0826 12.2765 10.5572 5.05222L10.402 5.09983C10.4364 12.1124 15.3199 24.017 21.2753 29.8258C19.9094 30.3768 18.4894 30.7768 17.0398 31.0189C11.3311 28.7132 7.26765 21.3285 7.26765 13.7637C7.26765 8.82537 8.74451 5.77045 9.03024 5.14524L8.90857 5.09607C8.56294 5.62918 6.39941 8.68254 6.39941 14.014C6.39941 22.5648 10.5357 29.1007 16.0271 31.1589C14.0634 31.3791 12.0779 31.2841 10.143 30.8773L10.1022 31.0076C10.6896 31.2281 12.6826 32.081 15.723 32.081C22.5997 32.081 27.2484 27.725 29.1198 24.4138L28.9858 24.3214Z"
    fill="#FAE7FB"
  />
  <path
    fill-rule="evenodd"
    clip-rule="evenodd"
    d="M15.0348 0.2229C9.82166 0.2229 3.70898 4.0587 3.70898 7.56498C3.70898 8.92126 4.92593 10.0671 7.44461 10.0671C13.2915 10.0671 18.7237 5.97159 18.7237 2.78699C18.7237 1.11122 17.1451 0.2229 15.0348 0.2229ZM17.1159 2.68801C17.1159 5.37238 12.0598 8.65376 7.83326 8.65376C5.96591 8.65376 4.95696 7.90452 4.95696 6.66821C4.95696 3.94531 10.0705 0.719681 14.035 0.719681C16.6198 0.719681 17.1159 2.06061 17.1159 2.68801Z"
    fill="#FAE7FB"
  />
  <path
    fill-rule="evenodd"
    clip-rule="evenodd"
    d="M1.63229 9.18829C1.48574 9.4467 0.898926 10.6182 0.898926 11.8185C0.898926 14.0446 3.10515 16.1113 7.16307 16.1113C14.9695 16.1113 23.9886 10.253 23.9886 4.81499C23.9886 2.374 21.7222 1.04685 20.1485 0.772461L20.119 0.867682C20.6084 1.02555 22.4014 1.87534 22.4014 4.04977C22.4014 8.38266 14.4383 14.2864 6.50621 14.2864C3.46953 14.2864 1.5564 12.7582 1.5564 10.532C1.5564 9.8279 1.70019 9.36401 1.73828 9.22963L1.63229 9.18829Z"
    fill="#FAE7FB"
  />
  <path
    fill-rule="evenodd"
    clip-rule="evenodd"
    d="M27.2075 5.22168C27.4216 5.38738 28.7074 6.47992 28.7074 8.54598C28.7074 15.5905 17.8811 22.5175 8.30995 22.5175C2.60221 22.5175 0.000264801 19.6443 0.115477 17.093H0.217785C0.441449 18.418 2.29467 20.7888 7.29025 20.7888C16.8734 20.7888 27.5734 13.6212 27.5734 7.3413C27.5734 6.2641 27.2864 5.59286 27.1242 5.29435L27.2075 5.22168Z"
    fill="#FAE7FB"
  />
  <path
    fill-rule="evenodd"
    clip-rule="evenodd"
    d="M30.8259 11.7982C30.8707 11.9483 31.1039 12.6226 31.1039 13.6788C31.1039 21.5152 20.1477 28.2239 10.6189 28.2239C5.7146 28.2239 3.15352 25.7952 2.61279 24.8088L2.70005 24.743C4.05709 25.953 6.73 26.8723 9.84932 26.8723C18.265 26.8723 30.8225 20.3447 30.7103 11.8267L30.8259 11.7982Z"
    fill="#FAE7FB"
  />
</svg>
