<svg width="160" height="60" viewBox="0 0 177 44" fill="none" xmlns="http://www.w3.org/2000/svg">
  <path d="M69.687 16.045H75.2876V33.6445H69.687V16.045Z" fill="#FAE7FB" />
  <path
    d="M76.4663 16.045H81.8588V18.4551H81.9629C83.2633 16.5651 84.9452 15.5421 87.3901 15.5421C91.2394 15.5421 93.5109 18.2991 93.5109 22.2178V33.6617H87.9103V23.3448C87.9103 21.4895 86.9739 20.2237 85.1533 20.2237C83.298 20.2237 82.0669 21.7669 82.0669 23.9344V33.6617H76.4663V16.045Z"
    fill="#FAE7FB"
  />
  <path
    d="M72.4957 14.7098C74.3535 14.7098 75.8595 13.2038 75.8595 11.346C75.8595 9.48822 74.3535 7.98218 72.4957 7.98218C70.6379 7.98218 69.1318 9.48822 69.1318 11.346C69.1318 13.2038 70.6379 14.7098 72.4957 14.7098Z"
    fill="#FAE7FB"
  />
  <path
    d="M132.906 15.7849C132.75 15.7676 132.559 15.7676 132.351 15.7676C130.218 15.7676 128.779 16.7039 127.531 18.7846H127.427V16.045H122.069V33.6444H127.669V25.7377C127.669 22.0791 129.698 20.3798 132.906 20.6746V15.7849Z"
    fill="#FAE7FB"
  />
  <path
    d="M160.406 22.5472C158.169 22.1311 156.175 21.9577 156.175 20.7266C156.175 19.6342 157.233 19.114 158.62 19.114C160.163 19.114 161.238 19.5995 161.446 21.1774H166.596C166.319 17.7095 163.649 15.5421 158.655 15.5421C154.493 15.5421 151.06 17.4668 151.06 21.1774C151.06 25.3042 154.32 26.1191 157.389 26.6393C159.73 27.0554 161.863 27.2288 161.863 28.8067C161.863 29.9338 160.805 30.558 159.106 30.558C157.424 30.558 156.297 29.8471 155.95 28.3906H150.609C151.008 32.0145 154.181 34.1992 159.14 34.1992C163.753 34.1992 167.151 32.2052 167.151 28.3559C167.134 23.8477 163.493 23.0674 160.406 22.5472Z"
    fill="#FAE7FB"
  />
  <path
    d="M141.905 30.1418C139.599 30.1418 138.298 28.668 137.952 26.2925H150.592C150.627 22.7206 149.604 19.6515 147.506 17.7269C145.997 16.3571 144.003 15.5248 141.489 15.5248C136.131 15.5248 132.455 19.5475 132.455 24.8013C132.455 30.1245 136.027 34.1472 141.836 34.1472C144.072 34.1472 145.858 33.5577 147.332 32.5347C148.875 31.477 149.916 29.9511 150.28 28.3732H144.818C144.35 29.4829 143.396 30.1418 141.905 30.1418ZM141.593 19.5128C143.414 19.5128 144.714 20.848 144.922 22.946H137.986C138.368 20.8653 139.478 19.5128 141.593 19.5128Z"
    fill="#FAE7FB"
  />
  <path
    d="M177 29.5003C176.74 29.5176 176.393 29.5176 176.064 29.5176C174.867 29.5176 174.104 29.1708 174.104 27.801V19.5475H177V16.0449H174.104V10.479H168.642V16.0449H166.926V19.5475H168.642V28.9974C168.642 32.7774 170.983 33.8524 174.243 33.8524C175.491 33.8524 176.428 33.7657 177 33.6444V29.5003Z"
    fill="#FAE7FB"
  />
  <path
    d="M103.516 29.5003C103.291 29.5003 103.031 29.5176 102.788 29.5176C101.591 29.5176 100.828 29.1708 100.828 27.801V19.5475H103.516V16.0449H100.828V10.479H95.3665V16.0449H93.5459V19.5475H95.3665V28.9974C95.3665 32.7774 97.7073 33.8524 100.967 33.8524C102.077 33.8524 102.944 33.7831 103.516 33.679V29.5003Z"
    fill="#FAE7FB"
  />
  <path
    d="M103.238 24.8187C103.238 19.5648 106.914 15.5421 112.272 15.5421C114.786 15.5421 116.78 16.3744 118.289 17.7442C120.387 19.6689 121.41 22.7206 121.375 26.3098H108.735C109.082 28.6853 110.382 30.1592 112.688 30.1592C114.162 30.1592 115.133 29.5003 115.601 28.4079H121.063C120.682 29.9858 119.659 31.4943 118.115 32.5693C116.642 33.5924 114.856 34.1819 112.619 34.1819C106.81 34.1646 103.238 30.1418 103.238 24.8187ZM115.723 22.9634C115.515 20.8653 114.214 19.5302 112.393 19.5302C110.261 19.5302 109.168 20.8653 108.787 22.9634H115.723Z"
    fill="#FAE7FB"
  />
  <path
    d="M49.9893 9.07458H59.7166C62.699 9.07458 64.9011 9.90687 66.427 11.346C68.0048 12.8199 68.9065 14.9179 68.9065 17.3975C68.9065 22.1138 65.6467 25.4429 60.5836 25.4429H55.6592V33.6618H49.9893V9.07458ZM59.9594 20.6226C62.1615 20.6226 63.3926 19.3221 63.3926 17.3628C63.3926 15.4034 62.1268 14.207 59.9594 14.207H55.6592V20.6399H59.9594V20.6226Z"
    fill="#FAE7FB"
  />
  <path
    d="M21.0673 43.077C32.7024 43.077 42.1346 33.6448 42.1346 22.0097C42.1346 10.3745 32.7024 0.942383 21.0673 0.942383C9.43215 0.942383 0 10.3745 0 22.0097C0 33.6448 9.43215 43.077 21.0673 43.077Z"
    fill="#25123C"
  />
  <path
    d="M21.0673 0.942383C9.41526 0.942383 0 10.375 0 22.0097C0 30.9394 5.54859 38.5687 13.386 41.6378C13.1952 39.9732 13.0392 37.407 13.4553 35.5864C13.8368 33.9391 15.9175 25.1134 15.9175 25.1134C15.9175 25.1134 15.2933 23.8476 15.2933 21.9923C15.2933 19.062 16.9926 16.8772 19.108 16.8772C20.9112 16.8772 21.7782 18.2297 21.7782 19.8423C21.7782 21.6456 20.6338 24.3505 20.0269 26.8647C19.5241 28.9628 21.0846 30.6793 23.148 30.6793C26.8933 30.6793 29.7716 26.726 29.7716 21.0387C29.7716 15.9929 26.1477 12.473 20.9633 12.473C14.9638 12.473 11.444 16.9639 11.444 21.6109C11.444 23.4142 12.1375 25.3562 13.0045 26.4139C13.1779 26.6219 13.1952 26.8127 13.1432 27.0207C12.9872 27.6796 12.623 29.1188 12.5537 29.4136C12.467 29.795 12.2416 29.8817 11.8428 29.691C9.24187 28.4426 7.61197 24.5932 7.61197 21.5068C7.61197 14.8659 12.4323 8.76242 21.5355 8.76242C28.8353 8.76242 34.5226 13.9642 34.5226 20.9346C34.5226 28.1998 29.945 34.0432 23.5988 34.0432C21.4661 34.0432 19.4547 32.9335 18.7785 31.6157C18.7785 31.6157 17.7208 35.6384 17.4607 36.6267C16.9926 38.4647 15.7094 40.7535 14.8425 42.158C16.8192 42.7649 18.8999 43.0943 21.0846 43.0943C32.7193 43.0943 42.1519 33.6617 42.1519 22.027C42.1346 10.375 32.702 0.942383 21.0673 0.942383Z"
    fill="#FAE7FB"
  />
</svg>
