<svg width="140" height="60" viewBox="0 0 177 47" fill="none" xmlns="http://www.w3.org/2000/svg">
  <g clip-path="url(#clip0_177_671)">
    <path
      fill-rule="evenodd"
      clip-rule="evenodd"
      d="M56.6255 36.4172L58.8344 31.201C61.2204 33.0141 64.3993 33.9566 67.5358 33.9566C69.8509 33.9566 71.3165 33.0501 71.3165 31.6758C71.2811 27.8338 57.4468 30.8412 57.3406 21.2074C57.3052 16.315 61.5815 12.5449 67.642 12.5449C71.2457 12.5449 74.8423 13.4514 77.4124 15.5163L75.345 20.8405C72.9944 19.3152 70.0704 18.2288 67.288 18.2288C65.3976 18.2288 64.1515 19.1353 64.1515 20.2937C64.1869 24.0637 78.1274 21.9988 78.269 31.201C78.269 36.2014 74.0989 39.7196 68.1092 39.7196C63.7196 39.7124 59.6911 38.662 56.6255 36.4172ZM141.451 29.316C140.346 31.2729 138.279 32.6112 135.886 32.6112C132.353 32.6112 129.507 29.7117 129.507 26.1287C129.507 22.5456 132.36 19.6461 135.886 19.6461C138.272 19.6461 140.346 20.9844 141.451 22.9414L147.547 19.5022C145.267 15.3724 140.877 12.5449 135.886 12.5449C128.502 12.5449 122.512 18.6317 122.512 26.1359C122.512 33.64 128.502 39.7268 135.886 39.7268C140.913 39.7268 145.267 36.9352 147.547 32.7695L141.451 29.316ZM81.3347 1.27063H88.9669V39.2088H81.3347V1.27063ZM150.542 1.27063V39.2088H158.174V27.8266L167.229 39.2088H177L165.48 25.6898L176.143 13.0773H166.797L158.167 23.5457V1.27063H150.542Z"
      fill="#FAE7FB"
    />
    <path
      d="M111.645 29.3879C110.54 31.237 108.26 32.6112 105.69 32.6112C102.157 32.6112 99.3112 29.7117 99.3112 26.1287C99.3112 22.5457 102.164 19.6462 105.69 19.6462C108.26 19.6462 110.54 21.0923 111.645 22.9774V29.3879ZM111.645 13.0845V16.1639C110.398 14.027 107.297 12.5377 104.048 12.5377C97.343 12.5377 92.0684 18.5526 92.0684 26.0927C92.0684 33.6329 97.343 39.7197 104.048 39.7197C107.29 39.7197 110.391 38.2375 111.645 36.0935V39.1729H119.277V13.0845H111.645Z"
      fill="#FAE7FB"
    />
    <path
      fill-rule="evenodd"
      clip-rule="evenodd"
      d="M9.45204 29.352C9.45204 31.9997 7.34928 34.1366 4.74384 34.1366C2.1384 34.1366 0.0356445 31.9925 0.0356445 29.352C0.0356445 26.7116 2.1384 24.5675 4.74384 24.5675H9.45204V29.352ZM11.8026 29.352C11.8026 26.7044 13.9054 24.5675 16.5108 24.5675C19.1162 24.5675 21.219 26.7044 21.219 29.352V41.3098C21.219 43.9575 19.1162 46.0943 16.5108 46.0943C13.9054 46.0943 11.8026 43.9575 11.8026 41.3098V29.352Z"
      fill="#FAE7FB"
    />
    <path
      fill-rule="evenodd"
      clip-rule="evenodd"
      d="M16.5106 10.1492C13.9051 10.1492 11.8024 8.0123 11.8024 5.36462C11.8024 2.71693 13.9051 0.580078 16.5106 0.580078C19.116 0.580078 21.2188 2.71693 21.2188 5.36462V10.1492H16.5106ZM16.5106 12.5738C19.116 12.5738 21.2188 14.7107 21.2188 17.3583C21.2188 20.006 19.116 22.1429 16.5106 22.1429H4.7082C2.10276 22.1429 0 19.9988 0 17.3583C0 14.7179 2.10276 12.5738 4.7082 12.5738H16.5106Z"
      fill="#FAE7FB"
    />
    <path
      fill-rule="evenodd"
      clip-rule="evenodd"
      d="M35.3715 17.3582C35.3715 14.7105 37.4742 12.5737 40.0797 12.5737C42.6851 12.5737 44.7879 14.7105 44.7879 17.3582C44.7879 20.0059 42.6851 22.1428 40.0797 22.1428H35.3715V17.3582ZM33.0209 17.3582C33.0209 20.0059 30.9181 22.1428 28.3127 22.1428C25.7073 22.1428 23.6045 20.0059 23.6045 17.3582V5.3645C23.6045 2.71681 25.7073 0.579956 28.3127 0.579956C30.9181 0.579956 33.0209 2.71681 33.0209 5.3645V17.3582Z"
      fill="#FAE7FB"
    />
    <path
      fill-rule="evenodd"
      clip-rule="evenodd"
      d="M28.3127 36.5253C30.9181 36.5253 33.0209 38.6621 33.0209 41.3098C33.0209 43.9575 30.9181 46.0943 28.3127 46.0943C25.7073 46.0943 23.6045 43.9575 23.6045 41.3098V36.5253H28.3127ZM28.3127 34.1366C25.7073 34.1366 23.6045 31.9997 23.6045 29.352C23.6045 26.7044 25.7073 24.5675 28.3127 24.5675H40.1151C42.7205 24.5675 44.8232 26.7044 44.8232 29.352C44.8232 31.9997 42.7205 34.1366 40.1151 34.1366H28.3127Z"
      fill="#FAE7FB"
    />
  </g>
  <defs>
    <clipPath id="clip0_177_671">
      <rect width="177" height="45.5143" fill="white" transform="translate(0 0.580078)" />
    </clipPath>
  </defs>
</svg>
