<svg
  viewBox="0 0 192 57"
  fill="none"
  xmlns="http://www.w3.org/2000/svg"
>
  <g clip-path="url(#clip0_177_781)">
    <path
      d="M187.483 33.8448C187.374 34.3906 187.183 34.8545 186.924 35.2637C186.665 35.6725 186.323 36.0005 185.888 36.2592C185.464 36.5052 184.933 36.6411 184.305 36.6411C183.691 36.6411 183.159 36.5186 182.737 36.2592C182.315 36.0123 181.955 35.6717 181.686 35.2637C181.427 34.8549 181.236 34.3906 181.113 33.8448C180.993 33.3029 180.934 32.7494 180.936 32.1945C180.936 31.6217 180.991 31.0485 181.1 30.5172C181.209 29.9714 181.4 29.494 181.659 29.0848C181.918 28.6614 182.259 28.3345 182.695 28.062C183.119 27.8025 183.65 27.6663 184.278 27.6663C184.891 27.6663 185.41 27.8025 185.833 28.062C186.256 28.324 186.615 28.6783 186.883 29.0983C187.156 29.521 187.347 30.0118 187.469 30.5442C187.592 31.0897 187.647 31.6351 187.647 32.1945C187.647 32.7538 187.592 33.2993 187.483 33.8448ZM191.111 29.4394C190.852 28.5255 190.471 27.7344 189.952 27.0388C189.42 26.357 188.765 25.7973 187.974 25.3885C187.183 24.9793 186.228 24.761 185.124 24.761C184.25 24.761 183.459 24.9385 182.736 25.2796C182.013 25.6206 181.413 26.1796 180.949 26.9298H180.895V25.1429H177.239V44.0614H181.086V37.4183H181.14C181.593 38.0857 182.215 38.6221 182.941 38.9735C183.678 39.328 184.469 39.5055 185.341 39.5055C186.365 39.5055 187.265 39.3011 188.042 38.9053C188.793 38.521 189.449 37.9761 189.965 37.3093C190.484 36.6411 190.865 35.8769 191.111 35.0042C191.371 34.1312 191.493 33.2315 191.493 32.2899C191.493 31.2944 191.371 30.3398 191.111 29.4255V29.4394ZM172.138 33.8448C172.029 34.3906 171.838 34.8545 171.579 35.2637C171.319 35.6729 170.979 36.0005 170.542 36.2592C170.12 36.5052 169.588 36.6411 168.96 36.6411C168.346 36.6411 167.828 36.5186 167.391 36.2592C166.97 36.0121 166.61 35.6716 166.341 35.2637C166.082 34.8549 165.891 34.3906 165.769 33.8448C165.648 33.303 165.589 32.7495 165.591 32.1945C165.591 31.6217 165.646 31.0485 165.755 30.5172C165.864 29.9714 166.054 29.494 166.314 29.0848C166.573 28.6614 166.914 28.3345 167.351 28.062C167.773 27.8025 168.305 27.6663 168.932 27.6663C169.547 27.6663 170.065 27.8025 170.488 28.062C170.911 28.324 171.27 28.6782 171.538 29.0983C171.811 29.521 172.002 30.0118 172.125 30.5442C172.247 31.0897 172.302 31.6351 172.302 32.1945C172.302 32.7538 172.247 33.2993 172.138 33.8448ZM174.607 27.0388C174.088 26.357 173.42 25.7973 172.629 25.3885C171.838 24.9793 170.883 24.761 169.778 24.761C168.905 24.761 168.114 24.9385 167.391 25.2796C166.668 25.6206 166.068 26.1796 165.604 26.9298H165.549V25.1429H161.894V44.0614H165.74V37.4183H165.795C166.249 38.0857 166.87 38.6221 167.596 38.9735C168.332 39.328 169.123 39.5055 169.996 39.5055C171.033 39.5055 171.919 39.3011 172.698 38.9053C173.448 38.5207 174.104 37.9759 174.62 37.3093C175.139 36.6411 175.521 35.8769 175.78 35.0042C176.032 34.1214 176.16 33.208 176.162 32.2899C176.162 31.2944 176.039 30.3398 175.78 29.4255C175.521 28.512 175.139 27.7205 174.607 27.0253V27.0388ZM149.291 31.6763L151.814 24.5697H151.869L154.31 31.6763H149.291ZM149.7 19.7959L142.375 39.1506H146.658L148.173 34.8406H155.415L156.875 39.1506H161.294L154.051 19.7959H149.686H149.7ZM142.062 33.0129C141.802 32.5763 141.475 32.1945 141.052 31.8946C140.643 31.5947 140.165 31.3622 139.633 31.1716C139.094 30.9946 138.548 30.8399 137.996 30.7082C137.451 30.585 136.919 30.4622 136.4 30.3532C135.882 30.2443 135.405 30.1211 135.009 29.9848C134.6 29.8486 134.273 29.6715 134.027 29.4528C133.768 29.2346 133.645 28.962 133.645 28.6075C133.645 28.3211 133.713 28.0889 133.863 27.9115C134.013 27.7344 134.191 27.6116 134.395 27.5161C134.6 27.4207 134.832 27.366 135.091 27.3391C135.327 27.313 135.563 27.2994 135.8 27.2982C136.482 27.2982 137.083 27.4345 137.588 27.6936C138.092 27.9527 138.379 28.4573 138.419 29.1938H142.075C142.006 28.3207 141.775 27.6116 141.407 27.0384C141.038 26.4652 140.575 26.0156 140.015 25.6745C139.456 25.3334 138.815 25.0882 138.106 24.9381C137.397 24.788 136.66 24.7198 135.896 24.7198C135.133 24.7198 134.396 24.7884 133.673 24.9242C132.95 25.0605 132.296 25.2926 131.723 25.6337C131.137 25.9748 130.672 26.4252 130.332 26.9976C129.977 27.5704 129.8 28.3211 129.8 29.2207C129.8 29.8347 129.922 30.3528 130.181 30.7755C130.427 31.199 130.768 31.5531 131.177 31.8395C131.6 32.1125 132.064 32.3446 132.596 32.5217C133.128 32.6988 133.673 32.8493 134.233 32.9717C135.61 33.2581 136.674 33.5445 137.452 33.8309C138.215 34.1173 138.598 34.5538 138.598 35.1267C138.598 35.4677 138.516 35.7541 138.352 35.9859C138.192 36.2123 137.982 36.399 137.738 36.5313C137.493 36.6676 137.22 36.7635 136.92 36.8312C136.638 36.8953 136.35 36.9274 136.06 36.9267C135.679 36.9267 135.31 36.8863 134.969 36.7904C134.615 36.695 134.301 36.5579 134.028 36.3674C133.755 36.1764 133.537 35.9308 133.36 35.6309C133.183 35.3311 133.101 34.9761 133.101 34.5669H129.445C129.486 35.5078 129.691 36.2854 130.086 36.9128C130.468 37.5407 130.973 38.0315 131.573 38.4134C132.173 38.7953 132.869 39.0678 133.646 39.2314C134.424 39.3954 135.215 39.4774 136.033 39.4774C136.825 39.4774 137.615 39.3954 138.379 39.2449C139.143 39.0951 139.825 38.8222 140.425 38.4403C141.026 38.0585 141.503 37.5538 141.871 36.9398C142.239 36.3127 142.43 35.5489 142.43 34.6212C142.43 33.9668 142.308 33.4213 142.048 32.9844L142.062 33.0129ZM126.143 20.9419H122.297V25.1429H119.964V27.7205H122.297V35.9866C122.297 36.6961 122.419 37.2554 122.651 37.6916C122.884 38.1285 123.211 38.4553 123.62 38.7013C124.029 38.9331 124.493 39.0967 125.025 39.1787C125.585 39.262 126.15 39.3029 126.717 39.3011C127.098 39.3011 127.48 39.2876 127.889 39.2741C128.251 39.2619 128.611 39.2254 128.967 39.1648V36.1776C128.779 36.22 128.587 36.2473 128.395 36.2592C128.186 36.2755 127.976 36.2846 127.767 36.2865C127.112 36.2865 126.689 36.1776 126.471 35.9589C126.253 35.741 126.144 35.3041 126.144 34.6636V27.7205H128.967V25.1429H126.144V20.9419H126.143ZM115.108 33.7358C115.108 33.9537 115.081 34.2405 115.04 34.6089C114.994 34.9857 114.869 35.3484 114.672 35.6729C114.467 36.0278 114.167 36.3277 113.744 36.5872C113.336 36.8459 112.735 36.969 111.985 36.969C111.685 36.969 111.385 36.9413 111.085 36.887C110.798 36.832 110.539 36.7365 110.321 36.6006C110.103 36.464 109.939 36.2869 109.802 36.0413C109.68 35.8096 109.612 35.5232 109.612 35.1682C109.612 34.7998 109.68 34.5134 109.802 34.2682C109.925 34.0357 110.102 33.8448 110.308 33.6815C110.512 33.5314 110.758 33.409 111.044 33.3135C111.33 33.2181 111.603 33.1495 111.903 33.0949C112.211 33.0419 112.52 32.9964 112.831 32.9586C113.144 32.9178 113.431 32.8766 113.717 32.8223C114.004 32.768 114.263 32.6995 114.509 32.6179C114.754 32.5363 114.959 32.427 115.123 32.2768V33.7093L115.108 33.7358ZM118.955 36.0409V28.7434C118.955 27.898 118.764 27.2159 118.382 26.6977C118 26.1792 117.509 25.7838 116.923 25.4974C116.322 25.211 115.668 25.0201 114.945 24.9112C114.235 24.8142 113.52 24.764 112.804 24.761C112.026 24.761 111.248 24.843 110.485 24.9931C109.721 25.1433 109.025 25.402 108.411 25.7708C107.807 26.1304 107.29 26.6196 106.897 27.2032C106.502 27.8033 106.27 28.5532 106.215 29.4536H110.062C110.13 28.6902 110.389 28.1582 110.825 27.8306C111.262 27.503 111.848 27.3398 112.613 27.3398C112.954 27.3398 113.281 27.3668 113.581 27.408C113.861 27.4447 114.13 27.5375 114.372 27.6809C114.604 27.8172 114.781 28.0081 114.918 28.2537C115.054 28.4993 115.123 28.8261 115.123 29.2492C115.136 29.6445 115.027 29.9452 114.768 30.1631C114.509 30.3675 114.167 30.5315 113.731 30.6404C113.295 30.7494 112.804 30.8313 112.245 30.886C111.685 30.9407 111.112 31.0088 110.54 31.1043C109.967 31.1997 109.394 31.3222 108.821 31.4723C108.248 31.6224 107.743 31.8542 107.306 32.1683C106.856 32.4816 106.502 32.8908 106.215 33.3955C105.929 33.914 105.792 34.5689 105.792 35.3599C105.792 36.0829 105.915 36.7103 106.161 37.2285C106.391 37.7337 106.737 38.1776 107.17 38.5246C107.621 38.8749 108.135 39.1343 108.684 39.2884C109.257 39.452 109.884 39.5336 110.553 39.5336C111.426 39.5336 112.272 39.4112 113.103 39.1517C113.926 38.9006 114.672 38.4456 115.272 37.829C115.286 38.0608 115.327 38.2921 115.368 38.5246C115.409 38.7425 115.477 38.9746 115.545 39.1929H119.446C119.269 38.9065 119.133 38.4696 119.064 37.8968C118.992 37.2948 118.956 36.6891 118.955 36.0829V36.0409H118.955ZM103.105 26.3567C102.724 25.8658 102.205 25.4701 101.551 25.1972C100.896 24.9108 100.05 24.7741 99.0134 24.7741C98.2904 24.7741 97.554 24.965 96.7903 25.3334C96.0265 25.7018 95.4125 26.302 94.9217 27.1065H94.8397V19.8094H90.9933V39.1644H94.8397V31.8126C94.8397 30.3802 95.0718 29.3574 95.5492 28.7299C96.0131 28.1024 96.7768 27.8025 97.827 27.8025C98.7408 27.8025 99.3956 28.0889 99.7502 28.6614C100.105 29.2342 100.296 30.0938 100.296 31.2529V39.1644H104.142V30.5442C104.142 29.6711 104.061 28.8804 103.91 28.1709C103.76 27.4615 103.487 26.8479 103.105 26.3567ZM82.768 33.1495H82.7133L79.4127 19.8098H75.4296L72.074 32.9859H72.0193L68.9501 19.8098H64.6948L69.8232 39.1648H74.1335L77.3525 25.9883H77.4071L80.6808 39.1648H84.9091L87.2277 30.5715L90.1194 19.8098H85.9454L82.768 33.1495Z"
      fill="#FAE7FB"
    />
    <path
      d="M28.6175 50.8133C23.9115 50.8133 19.5195 49.3947 15.8505 46.9807L6.92964 49.8309L9.82141 41.2106C7.03897 37.3911 5.40253 32.6855 5.40253 27.6114C5.40253 14.8171 15.8097 4.40989 28.604 4.40989C41.3983 4.40989 51.8055 14.8171 51.8055 27.6114C51.8055 40.4053 41.3983 50.8129 28.604 50.8129H28.6175V50.8133ZM28.6175 0.0175781C13.3811 0.0175781 1.02369 12.3761 1.02369 27.6118C1.02369 32.8221 2.46958 37.7052 4.97909 41.8654L0.000488281 56.665L15.2777 51.7684C19.3611 54.0263 23.9515 55.2091 28.6175 55.2056C43.8536 55.2056 56.2113 42.8478 56.2113 27.6118C56.2109 12.3761 43.8536 0.0175781 28.6175 0.0175781Z"
      fill="#FEFEFE"
    />
    <path
      d="M28.6175 4.41016C15.8232 4.41016 5.41602 14.8174 5.41602 27.6117C5.41602 32.6857 7.05284 37.3914 9.83528 41.2109L6.94351 49.8311L15.864 46.981C19.533 49.4089 23.9115 50.8135 28.631 50.8135C41.4253 50.8135 51.8325 40.406 51.8325 27.612C51.8325 14.8177 41.4253 4.41054 28.631 4.41054H28.6175V4.41016Z"
      fill="#6EBF64"
    />
    <path
      d="M22.1379 16.1954C21.6879 15.1179 21.3468 15.0771 20.6651 15.0494C20.4062 15.0327 20.1469 15.0237 19.8875 15.0225C19.0005 15.0225 18.0732 15.2815 17.5139 15.8543C16.8321 16.55 15.1406 18.1729 15.1406 21.5012C15.1406 24.8295 17.5685 28.0485 17.8957 28.4989C18.2368 28.9485 22.6291 35.8777 29.4489 38.7017C34.7821 40.9113 36.3646 40.7065 37.5784 40.4475C39.3515 40.0656 41.575 38.7556 42.1343 37.1738C42.6936 35.5913 42.6936 34.2409 42.5296 33.9545C42.366 33.668 41.9156 33.5048 41.2339 33.1634C40.5521 32.8223 37.2373 31.1855 36.6098 30.9672C35.9958 30.7355 35.4096 30.8175 34.9461 31.4723C34.2913 32.3862 33.6503 33.3139 33.1318 33.8728C32.7226 34.3094 32.0539 34.364 31.495 34.1319C30.7447 33.8186 28.6444 33.0814 26.0525 30.7763C24.0473 28.9897 22.6834 26.7666 22.288 26.0983C21.8923 25.4166 22.2472 25.0205 22.5606 24.6524C22.9017 24.2294 23.2289 23.9295 23.5699 23.5338C23.911 23.1384 24.1019 22.9336 24.3202 22.4698C24.5523 22.0198 24.3884 21.5559 24.2247 21.2148C24.0611 20.8737 22.6973 17.5454 22.1379 16.1954Z"
      fill="#FEFEFE"
    />
  </g>
  <defs>
    <linearGradient
      id="paint0_linear_177_781"
      x1="-168.985"
      y1="-73.3242"
      x2="-168.985"
      y2="-71.6217"
      gradientUnits="userSpaceOnUse"
    >
      <stop stop-color="#6EBF61" />
      <stop offset="0.231" stop-color="#50A557" />
      <stop offset="0.522" stop-color="#2A904F" />
      <stop offset="0.812" stop-color="#50A557" />
      <stop offset="1" stop-color="#6EBF63" />
    </linearGradient>
    <clipPath id="clip0_177_781">
      <rect width="191.493" height="56.6819" fill="white" />
    </clipPath>
  </defs>
</svg>
